<svg xmlns="http://www.w3.org/2000/svg" version="1.1" xmlns:xlink="http://www.w3.org/1999/xlink" xmlns:svgjs="http://svgjs.dev/svgjs" viewBox="0 0 7.915749217641494 2.7001486036637767"><g transform="matrix(1,0,0,1,3.093388934799561,0.4194743018318884)"><g><path d=" M 0.76875 0.0119999999999999 Q 0.8415 0.02399999999999991 0.8835000000000001 0.04499999999999993 Q 0.897 0.04949999999999999 0.90075 0.05624999999999991 Q 0.9045 0.06299999999999994 0.906 0.0794999999999999 L 0.924 0.27449999999999997 Q 0.924 0.2789999999999999 0.9165 0.28049999999999997 Q 0.909 0.2819999999999999 0.9075 0.2759999999999999 Q 0.864 0.15899999999999992 0.77625 0.09749999999999992 Q 0.6885 0.03599999999999992 0.5700000000000001 0.03599999999999992 Q 0.41400000000000003 0.03599999999999992 0.3255 0.14549999999999996 Q 0.23700000000000002 0.2549999999999999 0.23700000000000002 0.4395 Q 0.23700000000000002 0.5774999999999999 0.28575 0.693 Q 0.3345 0.8085 0.42075 0.876 Q 0.507 0.9435 0.6135 0.9435 Q 0.8160000000000001 0.9435 0.921 0.6915 Q 0.9225 0.6855 0.93075 0.6869999999999999 Q 0.9390000000000001 0.6884999999999999 0.9390000000000001 0.693 L 0.9165 0.885 Q 0.9135 0.9029999999999999 0.9097500000000001 0.90825 Q 0.906 0.9135 0.8925000000000001 0.9195 Q 0.762 0.972 0.615 0.972 Q 0.432 0.972 0.3105 0.89925 Q 0.189 0.8265 0.13125 0.714 Q 0.0735 0.6014999999999999 0.0735 0.4799999999999999 Q 0.0735 0.33899999999999997 0.15075 0.22949999999999993 Q 0.228 0.12 0.3555 0.05999999999999994 Q 0.483 -1.1102230246251565e-16 0.6285000000000001 -1.1102230246251565e-16 Q 0.6960000000000001 -1.1102230246251565e-16 0.76875 0.0119999999999999 M 2.100009521484375 0.945 Q 2.100009521484375 0.954 2.0955095214843746 0.954 Q 2.044509521484375 0.954 2.013009521484375 0.9525 L 1.903509521484375 0.951 L 1.776009521484375 0.9525 Q 1.7490095214843748 0.954 1.704009521484375 0.954 Q 1.699509521484375 0.954 1.699509521484375 0.945 Q 1.699509521484375 0.9359999999999999 1.704009521484375 0.9359999999999999 Q 1.7610095214843748 0.9359999999999999 1.786509521484375 0.9285 Q 1.812009521484375 0.9209999999999999 1.821009521484375 0.8999999999999999 Q 1.830009521484375 0.879 1.830009521484375 0.8325 L 1.830009521484375 0.48599999999999993 L 1.3155095214843748 0.48599999999999993 L 1.3155095214843748 0.8325 Q 1.3155095214843748 0.8775 1.324509521484375 0.89925 Q 1.333509521484375 0.9209999999999999 1.359759521484375 0.9285 Q 1.3860095214843748 0.9359999999999999 1.443009521484375 0.9359999999999999 Q 1.446009521484375 0.9359999999999999 1.446009521484375 0.945 Q 1.446009521484375 0.954 1.443009521484375 0.954 Q 1.392009521484375 0.954 1.3635095214843749 0.9525 L 1.239009521484375 0.951 L 1.129509521484375 0.9525 Q 1.101009521484375 0.954 1.050009521484375 0.954 Q 1.0470095214843749 0.954 1.0470095214843749 0.945 Q 1.0470095214843749 0.9359999999999999 1.050009521484375 0.9359999999999999 Q 1.104009521484375 0.9359999999999999 1.129509521484375 0.9285 Q 1.155009521484375 0.9209999999999999 1.1640095214843749 0.89925 Q 1.173009521484375 0.8775 1.173009521484375 0.8325 L 1.173009521484375 0.1379999999999999 Q 1.173009521484375 0.09299999999999997 1.1640095214843749 0.07199999999999995 Q 1.155009521484375 0.050999999999999934 1.129509521484375 0.042749999999999955 Q 1.104009521484375 0.034499999999999975 1.051509521484375 0.034499999999999975 Q 1.048509521484375 0.034499999999999975 1.048509521484375 0.025499999999999967 Q 1.048509521484375 0.01649999999999996 1.051509521484375 0.01649999999999996 L 1.131009521484375 0.017999999999999905 Q 1.200009521484375 0.020999999999999908 1.239009521484375 0.020999999999999908 Q 1.2915095214843748 0.020999999999999908 1.3635095214843749 0.017999999999999905 L 1.443009521484375 0.01649999999999996 Q 1.446009521484375 0.01649999999999996 1.446009521484375 0.025499999999999967 Q 1.446009521484375 0.034499999999999975 1.443009521484375 0.034499999999999975 Q 1.387509521484375 0.034499999999999975 1.361259521484375 0.04349999999999998 Q 1.335009521484375 0.05249999999999999 1.325259521484375 0.07424999999999993 Q 1.3155095214843748 0.09599999999999997 1.3155095214843748 0.1409999999999999 L 1.3155095214843748 0.44699999999999995 L 1.830009521484375 0.44699999999999995 L 1.830009521484375 0.1409999999999999 Q 1.830009521484375 0.09599999999999997 1.821009521484375 0.07424999999999993 Q 1.812009521484375 0.05249999999999999 1.785759521484375 0.04349999999999998 Q 1.759509521484375 0.034499999999999975 1.704009521484375 0.034499999999999975 Q 1.699509521484375 0.034499999999999975 1.699509521484375 0.025499999999999967 Q 1.699509521484375 0.01649999999999996 1.704009521484375 0.01649999999999996 L 1.776009521484375 0.017999999999999905 Q 1.848009521484375 0.020999999999999908 1.903509521484375 0.020999999999999908 Q 1.9440095214843751 0.020999999999999908 2.013009521484375 0.017999999999999905 L 2.0955095214843746 0.01649999999999996 Q 2.100009521484375 0.01649999999999996 2.100009521484375 0.025499999999999967 Q 2.100009521484375 0.034499999999999975 2.0955095214843746 0.034499999999999975 Q 2.0415095214843753 0.034499999999999975 2.016759521484375 0.042749999999999955 Q 1.992009521484375 0.050999999999999934 1.9830095214843748 0.07199999999999995 Q 1.974009521484375 0.09299999999999997 1.974009521484375 0.1379999999999999 L 1.974009521484375 0.8325 Q 1.974009521484375 0.8775 1.9830095214843748 0.89925 Q 1.992009521484375 0.9209999999999999 2.016759521484375 0.9285 Q 2.0415095214843753 0.9359999999999999 2.0955095214843746 0.9359999999999999 Q 2.100009521484375 0.9359999999999999 2.100009521484375 0.945" fill="#ffffff" fill-rule="nonzero"></path></g><g><path d=" M 0.76275 1.8567 Q 0.76275 1.8612 0.7605000000000001 1.8612 Q 0.7425 1.8612 0.7312500000000001 1.86045 L 0.6900000000000001 1.8597 L 0.648 1.86045 Q 0.6375000000000001 1.8612 0.61875 1.8612 Q 0.61725 1.8612 0.61725 1.8567 Q 0.61725 1.8522 0.61875 1.8522 Q 0.6465 1.8522 0.6555 1.842075 Q 0.6645 1.83195 0.6645 1.8004499999999999 L 0.6645 1.68495 Q 0.6645 1.6414499999999999 0.648 1.620825 Q 0.6315000000000001 1.6002 0.59775 1.6002 Q 0.5760000000000001 1.6002 0.553875 1.611075 Q 0.5317500000000001 1.62195 0.51375 1.6407 L 0.51375 1.8004499999999999 Q 0.51375 1.83195 0.522375 1.842075 Q 0.531 1.8522 0.55875 1.8522 Q 0.561 1.8522 0.561 1.8567 Q 0.561 1.8612 0.55875 1.8612 Q 0.5407500000000001 1.8612 0.5295 1.86045 L 0.48825 1.8597 L 0.44625000000000004 1.86045 Q 0.43575 1.8612 0.417 1.8612 Q 0.41550000000000004 1.8612 0.41550000000000004 1.8567 Q 0.41550000000000004 1.8522 0.417 1.8522 Q 0.44475000000000003 1.8522 0.45375 1.842075 Q 0.46275 1.83195 0.46275 1.8004499999999999 L 0.46275 1.4172 Q 0.46275 1.4066999999999998 0.45075 1.4066999999999998 L 0.3315 1.4066999999999998 Q 0.30375 1.4066999999999998 0.29175 1.410075 Q 0.27975 1.4134499999999999 0.27525 1.4232 Q 0.27075 1.43295 0.27075 1.4546999999999999 L 0.27075 1.8004499999999999 Q 0.27075 1.8236999999999999 0.275625 1.8342 Q 0.2805 1.8447 0.29475 1.84845 Q 0.309 1.8522 0.3405 1.8522 Q 0.342 1.8522 0.342 1.8567 Q 0.342 1.8612 0.3405 1.8612 Q 0.31425000000000003 1.8612 0.29925 1.86045 L 0.24 1.8597 L 0.18225 1.86045 Q 0.16725 1.8612 0.14025 1.8612 Q 0.138 1.8612 0.138 1.8567 Q 0.138 1.8522 0.14025 1.8522 Q 0.171 1.8522 0.18525 1.84845 Q 0.1995 1.8447 0.20475000000000002 1.833825 Q 0.21 1.82295 0.21 1.8004499999999999 L 0.21 1.4531999999999998 Q 0.21 1.43145 0.20550000000000002 1.422075 Q 0.201 1.4127 0.189 1.4097 Q 0.177 1.4066999999999998 0.14925 1.4066999999999998 Q 0.10275000000000001 1.4066999999999998 0.0765 1.43295 Q 0.05025 1.4592 0.0375 1.5162 Q 0.03675 1.5177 0.032625 1.5177 Q 0.0285 1.5177 0.0285 1.5162 Q 0.0315 1.49445 0.035250000000000004 1.4472 Q 0.039 1.39995 0.039 1.37595 Q 0.039 1.3721999999999999 0.043500000000000004 1.3721999999999999 Q 0.048 1.3721999999999999 0.048 1.37595 Q 0.048 1.39245 0.08925 1.39245 Q 0.132 1.39395 0.24 1.39395 Q 0.34950000000000003 1.39395 0.38475 1.39245 Q 0.4305 1.39095 0.46125 1.3710749999999998 Q 0.492 1.3512 0.5025000000000001 1.31745 Q 0.5025000000000001 1.3152 0.50775 1.3152 Q 0.51 1.3152 0.511875 1.31595 Q 0.51375 1.3167 0.51375 1.3182 L 0.51375 1.62645 Q 0.56775 1.56345 0.6285000000000001 1.56345 Q 0.6697500000000001 1.56345 0.692625 1.587825 Q 0.7155 1.6122 0.7155 1.6557 L 0.7155 1.8004499999999999 Q 0.7155 1.83195 0.724125 1.842075 Q 0.73275 1.8522 0.7605000000000001 1.8522 Q 0.76275 1.8522 0.76275 1.8567 M 1.0548724365234374 1.81695 Q 1.0571224365234375 1.81695 1.0589974365234376 1.819575 Q 1.0608724365234377 1.8222 1.0593724365234376 1.82445 Q 1.0331224365234375 1.84845 1.0057474365234376 1.859325 Q 0.9783724365234375 1.8701999999999999 0.9468724365234376 1.8701999999999999 Q 0.9018724365234375 1.8701999999999999 0.8692474365234375 1.850325 Q 0.8366224365234376 1.83045 0.8197474365234375 1.79745 Q 0.8028724365234375 1.76445 0.8028724365234375 1.7262 Q 0.8028724365234375 1.68195 0.8242474365234376 1.644825 Q 0.8456224365234375 1.6077 0.8834974365234376 1.586325 Q 0.9213724365234375 1.56495 0.9671224365234375 1.56495 Q 1.0091224365234375 1.56495 1.0323724365234375 1.584825 Q 1.0556224365234375 1.6047 1.0556224365234375 1.6392 Q 1.0556224365234375 1.65795 1.0473724365234376 1.65795 L 1.0113724365234376 1.65795 L 0.8636224365234375 1.6594499999999999 Q 0.8606224365234375 1.67445 0.8606224365234375 1.6962 Q 0.8606224365234375 1.7607 0.8917474365234376 1.8004499999999999 Q 0.9228724365234375 1.8402 0.9776224365234376 1.8402 Q 1.0211224365234375 1.8402 1.0541224365234376 1.81695 L 1.0548724365234374 1.81695 M 0.8936224365234375 1.597575 Q 0.8741224365234376 1.6152 0.8658724365234376 1.64745 L 0.9948724365234376 1.64445 Q 0.9941224365234376 1.61445 0.9798724365234376 1.5972 Q 0.9656224365234376 1.57995 0.9408724365234375 1.57995 Q 0.9131224365234376 1.57995 0.8936224365234375 1.597575 M 1.4700054931640625 1.390575 Q 1.5067554931640625 1.39695 1.5285054931640625 1.4082 Q 1.5345054931640627 1.4112 1.5363804931640626 1.414575 Q 1.5382554931640626 1.4179499999999998 1.5397554931640625 1.4262 L 1.5480054931640626 1.51695 Q 1.5480054931640626 1.5191999999999999 1.5442554931640626 1.519575 Q 1.5405054931640625 1.51995 1.5397554931640625 1.5177 Q 1.5202554931640626 1.4592 1.4760054931640627 1.4303249999999998 Q 1.4317554931640626 1.40145 1.3695054931640627 1.40145 Q 1.3147554931640626 1.40145 1.2742554931640626 1.426575 Q 1.2337554931640626 1.4517 1.2123804931640625 1.49745 Q 1.1910054931640626 1.5432 1.1910054931640626 1.6032 Q 1.1910054931640626 1.67295 1.2180054931640627 1.73145 Q 1.2450054931640626 1.78995 1.2911304931640626 1.824075 Q 1.3372554931640626 1.8582 1.3920054931640626 1.8582 Q 1.5000054931640627 1.8582 1.5465054931640627 1.73445 Q 1.5465054931640627 1.7322 1.5495054931640626 1.7322 Q 1.5517554931640625 1.7322 1.5536304931640625 1.73295 Q 1.5555054931640626 1.7337 1.5555054931640626 1.7351999999999999 L 1.5450054931640627 1.82595 Q 1.5435054931640626 1.8349499999999999 1.5416304931640625 1.837575 Q 1.5397554931640625 1.8402 1.5330054931640626 1.8432 Q 1.4640054931640627 1.8701999999999999 1.3920054931640626 1.8701999999999999 Q 1.3012554931640625 1.8701999999999999 1.2405054931640627 1.833825 Q 1.1797554931640626 1.79745 1.1512554931640626 1.7412 Q 1.1227554931640626 1.68495 1.1227554931640626 1.62345 Q 1.1227554931640626 1.5537 1.1613804931640626 1.499325 Q 1.2000054931640627 1.44495 1.2633804931640626 1.414575 Q 1.3267554931640626 1.3841999999999999 1.3987554931640627 1.3841999999999999 Q 1.4332554931640626 1.3841999999999999 1.4700054931640625 1.390575 M 1.9518852539062501 1.81545 Q 1.9541352539062502 1.81545 1.9552602539062502 1.8192 Q 1.95638525390625 1.82295 1.9541352539062502 1.8236999999999999 L 1.8618852539062503 1.8687 Q 1.8603852539062502 1.86945 1.8581352539062501 1.86945 Q 1.8521352539062501 1.86945 1.84576025390625 1.8529499999999999 Q 1.83938525390625 1.83645 1.8378852539062502 1.81095 Q 1.8116352539062501 1.83795 1.7846352539062502 1.8537 Q 1.75763525390625 1.86945 1.7246352539062502 1.86945 Q 1.6781352539062502 1.86945 1.64663525390625 1.8353249999999999 Q 1.6151352539062502 1.8012 1.6151352539062502 1.7397 Q 1.6151352539062502 1.6857 1.64026025390625 1.6452 Q 1.6653852539062501 1.6047 1.70476025390625 1.5833249999999999 Q 1.7441352539062502 1.56195 1.78538525390625 1.56195 Q 1.8251352539062502 1.56195 1.8581352539062501 1.5836999999999999 Q 1.8731352539062502 1.5762 1.88138525390625 1.5642 Q 1.8821352539062501 1.56345 1.8836352539062502 1.56345 Q 1.8851352539062503 1.56345 1.88701025390625 1.564575 Q 1.8888852539062502 1.5657 1.8888852539062502 1.56645 L 1.8888852539062502 1.78095 Q 1.8888852539062502 1.80495 1.8945102539062502 1.81545 Q 1.9001352539062502 1.82595 1.91363525390625 1.82595 Q 1.9233852539062501 1.82595 1.95038525390625 1.8162 L 1.9518852539062501 1.81545 M 1.8378852539062502 1.7982 L 1.8378852539062502 1.6421999999999999 Q 1.8378852539062502 1.61445 1.81688525390625 1.5957 Q 1.7958852539062502 1.57695 1.7666352539062502 1.57695 Q 1.7246352539062502 1.57695 1.69913525390625 1.61595 Q 1.6736352539062502 1.65495 1.6736352539062502 1.71645 Q 1.6736352539062502 1.7727 1.6950102539062502 1.8060749999999999 Q 1.71638525390625 1.83945 1.7538852539062502 1.83945 Q 1.7936352539062501 1.83945 1.8378852539062502 1.7982 M 2.2020029296875 1.575075 Q 2.2170029296875002 1.5852 2.2170029296875002 1.59945 Q 2.2170029296875002 1.6107 2.2095029296875 1.6185749999999999 Q 2.2020029296875 1.62645 2.1892529296875 1.62645 Q 2.1817529296875002 1.62645 2.1765029296875 1.623825 Q 2.1712529296875003 1.6212 2.1675029296875 1.6178249999999998 Q 2.1637529296875 1.61445 2.1622529296875004 1.6137 Q 2.1562529296875 1.6077 2.1506279296875004 1.604325 Q 2.1450029296875 1.60095 2.1367529296875003 1.60095 Q 2.1277529296875004 1.60095 2.1172529296875 1.608075 Q 2.1067529296875 1.6152 2.0857529296875 1.6392 L 2.0857529296875 1.8004499999999999 Q 2.0857529296875 1.8222 2.0913779296875004 1.833075 Q 2.0970029296875 1.84395 2.1120029296875003 1.848075 Q 2.1270029296875004 1.8522 2.1570029296875 1.8522 Q 2.1592529296875003 1.8522 2.1592529296875003 1.8567 Q 2.1592529296875003 1.8612 2.1570029296875 1.8612 Q 2.1322529296875 1.8612 2.1172529296875 1.86045 L 2.0602529296875 1.8597 L 2.0182529296875003 1.86045 Q 2.0077529296875003 1.8612 1.9897529296875 1.8612 Q 1.9875029296875002 1.8612 1.9875029296875002 1.8567 Q 1.9875029296875002 1.8522 1.9897529296875 1.8522 Q 2.0167529296875 1.8522 2.0253779296875 1.842075 Q 2.0340029296875 1.83195 2.0340029296875 1.8004499999999999 L 2.0340029296875 1.6542 Q 2.0340029296875 1.6294499999999998 2.0283779296875 1.6185749999999999 Q 2.0227529296875 1.6077 2.0092529296875004 1.6077 Q 1.9950029296875003 1.6077 1.9695029296875002 1.6181999999999999 L 1.9680029296875001 1.6181999999999999 Q 1.9657529296875003 1.6181999999999999 1.9646279296875002 1.61445 Q 1.9635029296875002 1.6107 1.9657529296875003 1.60995 L 2.0587529296875 1.5657 Q 2.0602529296875 1.56495 2.0632529296875 1.56495 Q 2.0707529296875 1.56495 2.0778779296875003 1.58145 Q 2.0850029296875 1.59795 2.0857529296875 1.62495 Q 2.1165029296875 1.59045 2.1348779296875002 1.5776999999999999 Q 2.1532529296875 1.56495 2.1697529296875 1.56495 Q 2.1870029296875 1.56495 2.2020029296875 1.575075 M 2.5046239013671876 1.81695 Q 2.5068739013671877 1.81695 2.5087489013671878 1.819575 Q 2.510623901367188 1.8222 2.5091239013671878 1.82445 Q 2.4828739013671877 1.84845 2.4554989013671875 1.859325 Q 2.428123901367188 1.8701999999999999 2.396623901367188 1.8701999999999999 Q 2.3516239013671876 1.8701999999999999 2.3189989013671877 1.850325 Q 2.2863739013671878 1.83045 2.2694989013671876 1.79745 Q 2.252623901367188 1.76445 2.252623901367188 1.7262 Q 2.252623901367188 1.68195 2.2739989013671877 1.644825 Q 2.2953739013671877 1.6077 2.3332489013671878 1.586325 Q 2.371123901367188 1.56495 2.416873901367188 1.56495 Q 2.4588739013671876 1.56495 2.4821239013671876 1.584825 Q 2.5053739013671876 1.6047 2.5053739013671876 1.6392 Q 2.5053739013671876 1.65795 2.4971239013671878 1.65795 L 2.4611239013671877 1.65795 L 2.313373901367188 1.6594499999999999 Q 2.310373901367188 1.67445 2.310373901367188 1.6962 Q 2.310373901367188 1.7607 2.3414989013671876 1.8004499999999999 Q 2.372623901367188 1.8402 2.427373901367188 1.8402 Q 2.4708739013671877 1.8402 2.5038739013671876 1.81695 L 2.5046239013671876 1.81695 M 2.3433739013671877 1.597575 Q 2.323873901367188 1.6152 2.3156239013671875 1.64745 L 2.4446239013671875 1.64445 Q 2.4438739013671875 1.61445 2.429623901367188 1.5972 Q 2.4153739013671878 1.57995 2.3906239013671877 1.57995 Q 2.3628739013671876 1.57995 2.3433739013671877 1.597575 M 2.8095208740234376 1.81695 Q 2.8117708740234377 1.81695 2.813645874023438 1.819575 Q 2.815520874023438 1.8222 2.814020874023438 1.82445 Q 2.7877708740234377 1.84845 2.7603958740234376 1.859325 Q 2.733020874023438 1.8701999999999999 2.701520874023438 1.8701999999999999 Q 2.6565208740234376 1.8701999999999999 2.6238958740234377 1.850325 Q 2.591270874023438 1.83045 2.5743958740234376 1.79745 Q 2.557520874023438 1.76445 2.557520874023438 1.7262 Q 2.557520874023438 1.68195 2.578895874023438 1.644825 Q 2.6002708740234377 1.6077 2.638145874023438 1.586325 Q 2.676020874023438 1.56495 2.721770874023438 1.56495 Q 2.7637708740234377 1.56495 2.7870208740234377 1.584825 Q 2.8102708740234377 1.6047 2.8102708740234377 1.6392 Q 2.8102708740234377 1.65795 2.802020874023438 1.65795 L 2.7660208740234378 1.65795 L 2.618270874023438 1.6594499999999999 Q 2.615270874023438 1.67445 2.615270874023438 1.6962 Q 2.615270874023438 1.7607 2.6463958740234377 1.8004499999999999 Q 2.677520874023438 1.8402 2.732270874023438 1.8402 Q 2.7757708740234377 1.8402 2.8087708740234376 1.81695 L 2.8095208740234376 1.81695 M 2.6482708740234377 1.597575 Q 2.628770874023438 1.6152 2.6205208740234376 1.64745 L 2.7495208740234376 1.64445 Q 2.7487708740234376 1.61445 2.734520874023438 1.5972 Q 2.720270874023438 1.57995 2.6955208740234378 1.57995 Q 2.6677708740234376 1.57995 2.6482708740234377 1.597575 M 3.0851539306640627 1.575075 Q 3.100153930664063 1.5852 3.100153930664063 1.59945 Q 3.100153930664063 1.6107 3.0926539306640626 1.6185749999999999 Q 3.0851539306640627 1.62645 3.0724039306640627 1.62645 Q 3.064903930664063 1.62645 3.0596539306640627 1.623825 Q 3.054403930664063 1.6212 3.0506539306640628 1.6178249999999998 Q 3.0469039306640626 1.61445 3.045403930664063 1.6137 Q 3.039403930664063 1.6077 3.033778930664063 1.604325 Q 3.028153930664063 1.60095 3.019903930664063 1.60095 Q 3.010903930664063 1.60095 3.0004039306640626 1.608075 Q 2.9899039306640627 1.6152 2.9689039306640628 1.6392 L 2.9689039306640628 1.8004499999999999 Q 2.9689039306640628 1.8222 2.974528930664063 1.833075 Q 2.9801539306640628 1.84395 2.995153930664063 1.848075 Q 3.010153930664063 1.8522 3.040153930664063 1.8522 Q 3.042403930664063 1.8522 3.042403930664063 1.8567 Q 3.042403930664063 1.8612 3.040153930664063 1.8612 Q 3.0154039306640628 1.8612 3.0004039306640626 1.86045 L 2.9434039306640627 1.8597 L 2.901403930664063 1.86045 Q 2.890903930664063 1.8612 2.8729039306640627 1.8612 Q 2.8706539306640626 1.8612 2.8706539306640626 1.8567 Q 2.8706539306640626 1.8522 2.8729039306640627 1.8522 Q 2.899903930664063 1.8522 2.9085289306640627 1.842075 Q 2.9171539306640626 1.83195 2.9171539306640626 1.8004499999999999 L 2.9171539306640626 1.6542 Q 2.9171539306640626 1.6294499999999998 2.911528930664063 1.6185749999999999 Q 2.9059039306640626 1.6077 2.892403930664063 1.6077 Q 2.878153930664063 1.6077 2.852653930664063 1.6181999999999999 L 2.8511539306640628 1.6181999999999999 Q 2.8489039306640627 1.6181999999999999 2.8477789306640626 1.61445 Q 2.8466539306640626 1.6107 2.8489039306640627 1.60995 L 2.9419039306640626 1.5657 Q 2.9434039306640627 1.56495 2.946403930664063 1.56495 Q 2.9539039306640626 1.56495 2.961028930664063 1.58145 Q 2.9681539306640627 1.59795 2.9689039306640628 1.62495 Q 2.9996539306640626 1.59045 3.018028930664063 1.5776999999999999 Q 3.0364039306640627 1.56495 3.052903930664063 1.56495 Q 3.0701539306640626 1.56495 3.0851539306640627 1.575075 M 3.664542846679688 1.8567 Q 3.664542846679688 1.8612 3.662292846679688 1.8612 Q 3.638292846679688 1.8612 3.624042846679688 1.86045 L 3.570042846679688 1.8597 L 3.5107928466796876 1.86045 Q 3.498042846679688 1.8612 3.475542846679688 1.8612 Q 3.473292846679688 1.8612 3.473292846679688 1.8567 Q 3.473292846679688 1.8522 3.475542846679688 1.8522 Q 3.504042846679688 1.8522 3.517542846679688 1.84845 Q 3.531042846679688 1.8447 3.5355428466796877 1.833825 Q 3.540042846679688 1.82295 3.540042846679688 1.8004499999999999 L 3.540042846679688 1.6257 L 3.2670428466796877 1.6257 L 3.2670428466796877 1.8004499999999999 Q 3.2670428466796877 1.82295 3.271542846679688 1.833825 Q 3.276042846679688 1.8447 3.2895428466796877 1.84845 Q 3.3030428466796877 1.8522 3.331542846679688 1.8522 Q 3.333042846679688 1.8522 3.333042846679688 1.8567 Q 3.333042846679688 1.8612 3.331542846679688 1.8612 Q 3.307542846679688 1.8612 3.293292846679688 1.86045 L 3.235542846679688 1.8597 L 3.182292846679688 1.86045 Q 3.168042846679688 1.8612 3.143292846679688 1.8612 Q 3.141792846679688 1.8612 3.141792846679688 1.8567 Q 3.141792846679688 1.8522 3.143292846679688 1.8522 Q 3.171042846679688 1.8522 3.1841678466796877 1.84845 Q 3.1972928466796877 1.8447 3.202167846679688 1.833825 Q 3.2070428466796876 1.82295 3.2070428466796876 1.8004499999999999 L 3.2070428466796876 1.4531999999999998 Q 3.2070428466796876 1.4306999999999999 3.202542846679688 1.4202 Q 3.1980428466796877 1.4097 3.1852928466796877 1.405575 Q 3.1725428466796877 1.40145 3.144792846679688 1.40145 Q 3.142542846679688 1.40145 3.142542846679688 1.39695 Q 3.142542846679688 1.39245 3.144792846679688 1.39245 L 3.1830428466796876 1.3932 Q 3.214542846679688 1.3946999999999998 3.235542846679688 1.3946999999999998 Q 3.259542846679688 1.3946999999999998 3.294042846679688 1.3932 L 3.331542846679688 1.39245 Q 3.333042846679688 1.39245 3.333042846679688 1.39695 Q 3.333042846679688 1.40145 3.331542846679688 1.40145 Q 3.3037928466796878 1.40145 3.2902928466796877 1.40595 Q 3.2767928466796876 1.41045 3.271917846679688 1.421325 Q 3.2670428466796877 1.4322 3.2670428466796877 1.4546999999999999 L 3.2670428466796877 1.60845 L 3.540042846679688 1.60845 L 3.540042846679688 1.4546999999999999 Q 3.540042846679688 1.4322 3.5351678466796876 1.421325 Q 3.530292846679688 1.41045 3.517167846679688 1.40595 Q 3.504042846679688 1.40145 3.475542846679688 1.40145 Q 3.473292846679688 1.40145 3.473292846679688 1.39695 Q 3.473292846679688 1.39245 3.475542846679688 1.39245 L 3.5107928466796876 1.3932 Q 3.545292846679688 1.3946999999999998 3.570042846679688 1.3946999999999998 Q 3.591042846679688 1.3946999999999998 3.624042846679688 1.3932 L 3.662292846679688 1.39245 Q 3.664542846679688 1.39245 3.664542846679688 1.39695 Q 3.664542846679688 1.40145 3.662292846679688 1.40145 Q 3.634542846679688 1.40145 3.621792846679688 1.405575 Q 3.6090428466796878 1.4097 3.604167846679688 1.4202 Q 3.599292846679688 1.4306999999999999 3.599292846679688 1.4531999999999998 L 3.599292846679688 1.8004499999999999 Q 3.599292846679688 1.82295 3.604167846679688 1.833825 Q 3.6090428466796878 1.8447 3.621792846679688 1.84845 Q 3.634542846679688 1.8522 3.662292846679688 1.8522 Q 3.664542846679688 1.8522 3.664542846679688 1.8567 M 4.057907592773438 1.8162 Q 4.060907592773438 1.8162 4.062407592773438 1.819575 Q 4.063907592773438 1.82295 4.061657592773438 1.82445 L 3.9686575927734378 1.8687 Q 3.9671575927734377 1.86945 3.964907592773438 1.86945 Q 3.958157592773438 1.86945 3.951407592773438 1.851825 Q 3.9446575927734377 1.8342 3.9446575927734377 1.8056999999999999 Q 3.889157592773438 1.86795 3.829157592773438 1.86795 Q 3.7909075927734377 1.86795 3.7687825927734377 1.843575 Q 3.746657592773438 1.8192 3.746657592773438 1.7757 L 3.746657592773438 1.66245 Q 3.746657592773438 1.63395 3.741407592773438 1.621575 Q 3.736157592773438 1.6092 3.724157592773438 1.6092 Q 3.713657592773438 1.6092 3.700907592773438 1.6152 L 3.699407592773438 1.6152 Q 3.6971575927734377 1.6152 3.696032592773438 1.61145 Q 3.694907592773438 1.6077 3.6971575927734377 1.6069499999999999 L 3.785657592773438 1.5657 L 3.788657592773438 1.56495 Q 3.7916575927734377 1.56495 3.794657592773438 1.5672 Q 3.797657592773438 1.56945 3.797657592773438 1.57245 L 3.797657592773438 1.7471999999999999 Q 3.797657592773438 1.83195 3.860657592773438 1.83195 Q 3.881657592773438 1.83195 3.904157592773438 1.82145 Q 3.926657592773438 1.81095 3.9446575927734377 1.7922 L 3.9446575927734377 1.66245 Q 3.9446575927734377 1.63395 3.939407592773438 1.621575 Q 3.934157592773438 1.6092 3.922157592773438 1.6092 Q 3.912407592773438 1.6092 3.8981575927734378 1.6152 L 3.8966575927734377 1.6152 Q 3.894407592773438 1.6152 3.893657592773438 1.61145 Q 3.892907592773438 1.6077 3.895157592773438 1.6069499999999999 L 3.983657592773438 1.5657 L 3.986657592773438 1.56495 Q 3.9896575927734377 1.56495 3.992657592773438 1.5672 Q 3.995657592773438 1.56945 3.995657592773438 1.57245 L 3.995657592773438 1.7787 Q 3.995657592773438 1.8042 4.001282592773438 1.81545 Q 4.006907592773437 1.8267 4.020407592773438 1.8267 Q 4.0324075927734375 1.8267 4.057157592773438 1.8162 L 4.057907592773438 1.8162 M 4.36053955078125 1.5776999999999999 Q 4.38828955078125 1.59345 4.404789550781251 1.6245749999999999 Q 4.421289550781251 1.6557 4.421289550781251 1.7006999999999999 Q 4.421289550781251 1.75545 4.398039550781251 1.7936999999999999 Q 4.374789550781251 1.83195 4.33728955078125 1.85145 Q 4.2997895507812505 1.87095 4.257789550781251 1.87095 Q 4.20003955078125 1.87095 4.15428955078125 1.8372 L 4.093539550781251 1.8649499999999999 L 4.092039550781251 1.8649499999999999 Q 4.0890395507812505 1.8649499999999999 4.0886645507812505 1.862325 Q 4.0882895507812504 1.8597 4.0905395507812505 1.8582 Q 4.1122895507812505 1.8432 4.122039550781251 1.82745 Q 4.13178955078125 1.8116999999999999 4.13178955078125 1.78395 L 4.13178955078125 1.4157 Q 4.13178955078125 1.3887 4.12653955078125 1.3767 Q 4.121289550781251 1.3647 4.10778955078125 1.3647 Q 4.097289550781251 1.3647 4.075539550781251 1.37445 L 4.074039550781251 1.37445 Q 4.071789550781251 1.37445 4.070664550781251 1.3707 Q 4.069539550781251 1.3669499999999999 4.071789550781251 1.3662 L 4.17078955078125 1.3182 L 4.17453955078125 1.31745 Q 4.17678955078125 1.31745 4.17978955078125 1.3197 Q 4.1827895507812505 1.32195 4.1827895507812505 1.3249499999999999 L 4.1827895507812505 1.62195 Q 4.2082895507812506 1.5949499999999999 4.236789550781251 1.57845 Q 4.26528955078125 1.56195 4.2997895507812505 1.56195 Q 4.332789550781251 1.56195 4.36053955078125 1.5776999999999999 M 4.34141455078125 1.82295 Q 4.36353955078125 1.7892 4.36353955078125 1.7277 Q 4.36353955078125 1.66095 4.33841455078125 1.626075 Q 4.31328955078125 1.5912 4.27128955078125 1.5912 Q 4.2307895507812505 1.5912 4.1827895507812505 1.6347 L 4.1827895507812505 1.7547 Q 4.1827895507812505 1.78995 4.19853955078125 1.812825 Q 4.214289550781251 1.8356999999999999 4.236414550781251 1.8462 Q 4.258539550781251 1.8567 4.279539550781251 1.8567 Q 4.31928955078125 1.8567 4.34141455078125 1.82295" fill="#cccccc" fill-rule="nonzero"></path></g><g clip-path="url(#SvgjsClipPath1002)"><g clip-path="url(#SvgjsClipPath10013acbb723-310d-4b08-a77a-ad7c11abf28a)"><path d=" M -1.7706813048472965 1.906621514107143 L -1.5666670146243105 1.906621514107143 L -1.5666670146243105 0.6160575464112684 L -1.7706813048472965 0.6160575464112684 Z" fill="#bf0000" transform="matrix(1,0,0,1,0,0)" fill-rule="nonzero"></path></g><g clip-path="url(#SvgjsClipPath10013acbb723-310d-4b08-a77a-ad7c11abf28a)"><path d=" M -0.6573715032404728 1.906621514107143 L -0.45335721301748677 1.906621514107143 L -0.45335721301748677 0.030880320870465022 L -0.6573715032404728 0.030880320870465022 Z" fill="#000000" transform="matrix(1,0,0,1,0,0)" fill-rule="nonzero"></path></g><g clip-path="url(#SvgjsClipPath10013acbb723-310d-4b08-a77a-ad7c11abf28a)"><path d=" M -2.090304396336602 1.906621514107143 L -1.8862901061136164 1.906621514107143 L -1.8862901061136164 0.9306156301780628 L -2.090304396336602 0.9306156301780628 Z M -2.4031319357982053 1.906621514107143 L -2.1991176455752193 1.906621514107143 L -2.1991176455752193 1.1674680538019966 L -2.4031319357982053 1.1674680538019966 Z M -2.7193361470748156 1.906621514107143 L -2.51532185685183 1.906621514107143 L -2.51532185685183 1.418608020043181 L -2.7193361470748156 1.418608020043181 Z" fill="#bf0000" transform="matrix(1,0,0,1,0,0)" fill-rule="nonzero"></path></g><g clip-path="url(#ad898c92d-bbf0-45c6-a01a-a27e2afafc1b3acbb723-310d-4b08-a77a-ad7c11abf28a)"><path d=" M -1.2513280755002956 1.906621514107143 C -1.2513280755002956 1.906621514107143 -1.0894166619706849 1.1428605579501294 -1.0823889637557005 1.054856048771496 C -1.0823889637557005 1.054856048771496 -1.0881293058412134 1.0478283505565114 -1.0634796015916583 1.0337518499276988 L -1.0318021991271191 1.906621514107143 L -0.8417377843398832 1.906621514107143 C -0.8417377843398832 1.906621514107143 -0.8030326836603596 0.6923281210327509 -0.8734151868044226 0.4987604092374447 C -0.8734151868044226 0.4987604092374447 -0.7361534775243666 0.7486552277468452 -0.5460890627371309 0.6254700190956018 C -0.3560246479498952 0.502263706245515 -0.45810565775734124 0.312199291458279 -0.45810565775734124 0.312199291458279 C -0.45810565775734124 0.312199291458279 -0.4211522055818526 0.26294209135685687 -0.4000269025392118 0.2664453883649271 C -0.4000269025392118 0.2664453883649271 -0.40707570495304024 0.22069148527157495 -0.47393380689018905 0.2822946416966187 C -0.5408130130261815 0.34389779812166205 -0.5654627172757367 0.25941769014994265 -0.5654627172757367 0.25941769014994265 C -0.5654627172757367 0.25941769014994265 -0.6112166203690887 0.26821814106780606 -0.5777664652016701 0.2963711423254314 C -0.5443374142330955 0.32452414358305665 -0.5601655633659433 0.3086959944502088 -0.5601655633659433 0.3086959944502088 C -0.5601655633659433 0.3086959944502088 -0.49681075843686484 0.43715725281240136 -0.6411212701307489 0.44068165401931536 C -0.7854317818246328 0.4442060552262296 -0.7889561830315468 0.2760055904411675 -0.9878210487366461 0.25011073845982845 C -0.9878210487366461 0.25011073845982845 -1.008925247580443 0.20311168763469248 -0.9666957456940053 0.17846198338513763 C -0.9288559171670774 0.1563869913945259 -0.8994999765753555 -0.032326754666706994 -1.0481368490322178 -0.04484154458107872 C -1.0853224473949883 -0.04796496600996055 -1.122655775149665 -0.03838365973487656 -1.154713053193393 -0.019305463980084477 C -1.1959084493364847 0.005196510877564217 -1.2226263650727316 0.08722853178340292 -1.144498620952995 0.13745652503163974 C -1.144498620952995 0.13745652503163974 -1.1210940644352243 0.16847969733202148 -1.1463135820535615 0.22653734835130707 C -1.1463135820535615 0.22653734835130707 -1.1719340794499313 0.21986842151666708 -1.2069459453317906 0.22562986780102373 C -1.537627637015246 0.279973179823801 -1.6526244165150958 0.7059192250881559 -1.3864160522994402 0.9094692229365782 C -1.3770668922116382 0.9166235463446253 -1.3186293656131642 0.9373689738080779 -1.3088159131507986 0.9434047746774037 L -1.3018937359300333 0.8507151333554471 C -1.3018937359300333 0.8507151333554471 -1.5223481970523367 0.7457006399087133 -1.3041307810074758 0.5650275936069671 C -1.3041307810074758 0.5650275936069671 -1.2196506730357564 0.8694978703264264 -1.458993392123258 1.906621514107143 Z" fill="#bf0000" transform="matrix(1,0,0,1,0,0)" fill-rule="nonzero"></path></g><g clip-path="url(#ad898c92d-bbf0-45c6-a01a-a27e2afafc1b3acbb723-310d-4b08-a77a-ad7c11abf28a)"><path d=" M -0.9544975187622906 0.047637054752439595 C -0.9544975187622906 0.047637054752439595 -0.9286870835763268 0.1274109263819923 -0.989699322433744 0.17434666461059684 C -1.0507115612911613 0.22128240283920142 -1.0143279224844552 -0.0356612180840272 -0.9544975187622906 0.047637054752439595" fill="#000000" transform="matrix(1,0,0,1,0,0)" fill-rule="nonzero"></path></g><g clip-path="url(#SvgjsClipPath10013acbb723-310d-4b08-a77a-ad7c11abf28a)"><path d=" M -1.092926445053922 0.2599992151121104 L -1.0211721689850122 0.2599992151121104 L -1.043648140753656 0.29167661757664964 L -1.043648140753656 0.39726092439216615 L -1.1140517480965628 0.5134184348284249 L -1.0612490425893826 0.29167661757664964 Z" fill="#000000" transform="matrix(1,0,0,1,0,0)" fill-rule="nonzero"></path></g><g clip-path="url(#bd898c92d-bbf0-45c6-a01a-a27e2afafc1b3acbb723-310d-4b08-a77a-ad7c11abf28a)"><path d=" M -1.1140452620213963 0.5591606263283916 L -0.9669067876824435 0.31937471906516995 C -0.9669067876824435 0.31937471906516995 -0.934532946656059 0.29518930719017855 -0.9204564460272462 0.33039111086163203 C -0.9063799453984336 0.36557181033424163 -0.8584312056253267 0.8688858485599564 -0.8806539270078451 0.9674424571604885 C -0.8806539270078451 0.9674424571604885 -0.9604911112339292 0.9463171541178477 -0.8806539270078451 1.0307972620895671 L -0.8806539270078451 1.8684862267964018 L -0.9310296496479884 1.8684862267964018 L -0.934532946656059 1.061693809196886 L -1.1935447790659797 0.5948267223744085 L -1.1935447790659797 0.42542331825525 Z" fill="#000000" transform="matrix(1,0,0,1,0,0)" fill-rule="nonzero"></path></g><g clip-path="url(#SvgjsClipPath10013acbb723-310d-4b08-a77a-ad7c11abf28a)"><path d=" M -1.1549096320161214 1.0272864906942274 L -1.3097933473307475 1.889604055451773 L -1.2710460382535362 1.889604055451773 L -1.1162045313365976 1.0898604402660856 L -1.1056313277158554 1.0343141889092118 L -1.0258363518874587 1.0120281549301622 L -1.021151219744136 0.9991123852377584 Z" fill="#000000" transform="matrix(1,0,0,1,0,0)" fill-rule="nonzero"></path></g></g></g><defs><clipPath id="SvgjsClipPath1002"><path d=" M -2.7193361470748156 -0.04542151410714301 h 2.3193361470748157 v 1.952043028214286 h -2.3193361470748157 Z"></path></clipPath><clipPath id="SvgjsClipPath10013acbb723-310d-4b08-a77a-ad7c11abf28a"><path d=" M -2.7193361470748156 -0.04542151410714301 L -0.3999999999999999 -0.04542151410714301 L -0.3999999999999999 1.906621514107143 L -2.7193361470748156 1.906621514107143 Z"></path></clipPath><clipPath id="ad898c92d-bbf0-45c6-a01a-a27e2afafc1b3acbb723-310d-4b08-a77a-ad7c11abf28a"><path d=" M -2.7193361470748156 1.906621514107143 L -0.4000057983403682 1.906621514107143 L -0.4000057983403682 -0.04543246214870498 L -2.7193361470748156 -0.04543246214870498 Z"></path></clipPath><clipPath id="bd898c92d-bbf0-45c6-a01a-a27e2afafc1b3acbb723-310d-4b08-a77a-ad7c11abf28a"><path d=" M -2.7193361470748156 1.906621514107143 L -0.4000057983403682 1.906621514107143 L -0.4000057983403682 -0.04543246214870498 L -2.7193361470748156 -0.04543246214870498 Z"></path></clipPath></defs></svg>